<svg width="25" height="24" viewBox="0 0 25 24" fill="none" xmlns="http://www.w3.org/2000/svg">
<path d="M2.49982 9.00018C2.49982 7.11418 2.49982 6.17218 3.08582 5.58618C3.67182 5.00018 4.61382 5.00018 6.49982 5.00018H18.4998C20.3858 5.00018 21.3278 5.00018 21.9138 5.58618C22.4998 6.17218 22.4998 7.11418 22.4998 9.00018C22.4998 9.47118 22.4998 9.70718 22.3538 9.85418C22.2068 10.0002 21.9698 10.0002 21.4998 10.0002H3.49982C3.02882 10.0002 2.79282 10.0002 2.64582 9.85418C2.49982 9.70718 2.49982 9.47018 2.49982 9.00018Z" fill="#B6B4BF"/>
<path fill-rule="evenodd" clip-rule="evenodd" d="M3.08582 21.4142C2.49982 20.8282 2.49982 19.8862 2.49982 18.0002V13.0002C2.49982 12.5292 2.49982 12.2932 2.64582 12.1462C2.79282 12.0002 3.02982 12.0002 3.49982 12.0002H21.4998C21.9708 12.0002 22.2068 12.0002 22.3538 12.1462C22.4998 12.2932 22.4998 12.5292 22.4998 13.0002V18.0002C22.4998 19.8862 22.4998 20.8282 21.9138 21.4142C21.3278 22.0002 20.3858 22.0002 18.4998 22.0002H6.49982C4.61382 22.0002 3.67182 22.0002 3.08582 21.4142ZM8.49982 16.0002C8.2346 16.0002 7.98025 16.1055 7.79271 16.2931C7.60517 16.4806 7.49982 16.735 7.49982 17.0002C7.49982 17.2654 7.60517 17.5198 7.79271 17.7073C7.98025 17.8948 8.2346 18.0002 8.49982 18.0002H16.4998C16.765 18.0002 17.0194 17.8948 17.2069 17.7073C17.3945 17.5198 17.4998 17.2654 17.4998 17.0002C17.4998 16.735 17.3945 16.4806 17.2069 16.2931C17.0194 16.1055 16.765 16.0002 16.4998 16.0002H8.49982Z" fill="#B6B4BF"/>
<path d="M7.49982 3.00018V6.00018M17.4998 3.00018V6.00018" stroke="#B6B4BF" stroke-width="2" stroke-linecap="round"/>
</svg>
