<svg width="16" height="16" viewBox="0 0 16 16" fill="none" xmlns="http://www.w3.org/2000/svg">
<path d="M8 1.44615C10.1205 1.44615 10.4096 1.44615 11.2771 1.44615C12.0482 1.44615 12.4337 1.63892 12.7229 1.73531C13.1084 1.92808 13.3976 2.02446 13.6867 2.31362C13.9759 2.60278 14.1687 2.89193 14.2651 3.27748C14.3614 3.56663 14.4578 3.95217 14.5542 4.72326C14.5542 5.59073 14.5542 5.7835 14.5542 8.00037C14.5542 10.2172 14.5542 10.41 14.5542 11.2775C14.5542 12.0486 14.3614 12.4341 14.2651 12.7233C14.0723 13.1088 13.9759 13.398 13.6867 13.6871C13.3976 13.9763 13.1084 14.169 12.7229 14.2654C12.4337 14.3618 12.0482 14.4582 11.2771 14.5546C10.4096 14.5546 10.2169 14.5546 8 14.5546C5.78313 14.5546 5.59036 14.5546 4.72289 14.5546C3.95181 14.5546 3.56627 14.3618 3.27711 14.2654C2.89157 14.0727 2.60241 13.9763 2.31325 13.6871C2.0241 13.398 1.83133 13.1088 1.73494 12.7233C1.63855 12.4341 1.54217 12.0486 1.44578 11.2775C1.44578 10.41 1.44578 10.2172 1.44578 8.00037C1.44578 5.7835 1.44578 5.59073 1.44578 4.72326C1.44578 3.95217 1.63855 3.56663 1.73494 3.27748C1.92771 2.89193 2.0241 2.60278 2.31325 2.31362C2.60241 2.02446 2.89157 1.83169 3.27711 1.73531C3.56627 1.63892 3.95181 1.54254 4.72289 1.44615C5.59036 1.44615 5.87952 1.44615 8 1.44615ZM8 0.000366211C5.78313 0.000366211 5.59036 0.000366211 4.72289 0.000366211C3.85542 0.000366211 3.27711 0.193138 2.79518 0.385909C2.31325 0.57868 1.83133 0.867837 1.3494 1.34976C0.867471 1.83169 0.674699 2.21723 0.385543 2.79555C0.192772 3.27748 0.0963856 3.85579 0 4.72326C0 5.59073 0 5.87989 0 8.00037C0 10.2172 0 10.41 0 11.2775C0 12.1449 0.192772 12.7233 0.385543 13.2052C0.578314 13.6871 0.867471 14.169 1.3494 14.651C1.83133 15.1329 2.21687 15.3257 2.79518 15.6148C3.27711 15.8076 3.85542 15.904 4.72289 16.0004C5.59036 16.0004 5.87952 16.0004 8 16.0004C10.1205 16.0004 10.4096 16.0004 11.2771 16.0004C12.1446 16.0004 12.7229 15.8076 13.2048 15.6148C13.6867 15.4221 14.1687 15.1329 14.6506 14.651C15.1325 14.169 15.3253 13.7835 15.6145 13.2052C15.8072 12.7233 15.9036 12.1449 16 11.2775C16 10.41 16 10.1208 16 8.00037C16 5.87989 16 5.59073 16 4.72326C16 3.85579 15.8072 3.27748 15.6145 2.79555C15.4217 2.31362 15.1325 1.83169 14.6506 1.34976C14.1687 0.867837 13.7831 0.675066 13.2048 0.385909C12.7229 0.193138 12.1446 0.0967518 11.2771 0.000366211C10.4096 0.000366211 10.2169 0.000366211 8 0.000366211Z" fill="#0C0C0C"/>
<path d="M8 3.85579C5.68675 3.85579 3.85542 5.68711 3.85542 8.00037C3.85542 10.3136 5.68675 12.1449 8 12.1449C10.3133 12.1449 12.1446 10.3136 12.1446 8.00037C12.1446 5.68711 10.3133 3.85579 8 3.85579ZM8 10.6992C6.55422 10.6992 5.30121 9.54254 5.30121 8.00037C5.30121 6.55458 6.45783 5.30157 8 5.30157C9.44578 5.30157 10.6988 6.4582 10.6988 8.00037C10.6988 9.44615 9.44578 10.6992 8 10.6992Z" fill="#0C0C0C"/>
<path d="M12.241 4.72326C12.7733 4.72326 13.2048 4.29173 13.2048 3.7594C13.2048 3.22708 12.7733 2.79555 12.241 2.79555C11.7086 2.79555 11.2771 3.22708 11.2771 3.7594C11.2771 4.29173 11.7086 4.72326 12.241 4.72326Z" fill="#0C0C0C"/>
</svg>
