<svg width="24" height="24" viewBox="0 0 24 24" fill="none" xmlns="http://www.w3.org/2000/svg">
<path d="M20.5071 16.7454C20.0121 15.7874 18.9671 15.1454 17.7031 15.3044C16.3665 15.4675 15.0409 15.71 13.7331 16.0304C11.7231 16.5324 9.96209 17.4974 8.66009 18.3784L8.22009 18.6844L7.82009 18.9794L7.46209 19.2554L7.14809 19.5094L6.88109 19.7354L6.66109 19.9274C5.81809 20.6784 6.39109 21.9054 7.34609 21.9954L7.45809 22.0004H16.0521C17.7341 22.0004 19.1321 21.1554 20.1561 19.8744C20.9301 18.9074 20.9961 17.6914 20.5061 16.7454H20.5071ZM4.97509 2.00037C4.08209 2.00037 3.69709 2.84037 3.50809 3.61037L3.44809 3.87837L3.42409 4.00637C3.28009 4.80337 3.20309 5.84837 3.17209 6.92237C3.11209 9.04737 3.23409 11.5244 3.49909 12.7174C3.96109 14.7994 4.63909 16.2464 5.45109 17.1184C6.27709 18.0084 7.39309 18.4094 8.42209 17.8944C9.21109 17.5004 9.68209 16.5634 9.94009 15.7644C10.3169 14.5998 10.311 13.3453 9.92309 12.1844C9.71309 11.5524 9.33509 11.0424 8.91909 10.5574L8.55609 10.1464C8.11409 9.65137 7.67109 9.15637 7.36909 8.55337C6.92909 7.67337 6.80909 6.71037 6.77209 5.74337L6.75809 5.16337L6.74909 4.60337L6.74309 4.46537L6.72309 4.18537C6.62809 3.10737 6.25909 2.00037 4.97509 2.00037Z" fill="#6E6D74"/>
</svg>
