<svg width="25" height="24" viewBox="0 0 25 24" fill="none" xmlns="http://www.w3.org/2000/svg">
<path fill-rule="evenodd" clip-rule="evenodd" d="M12.5 2.00037C18.023 2.00037 22.5 6.47737 22.5 12.0004C22.5 17.5234 18.023 22.0004 12.5 22.0004C6.977 22.0004 2.5 17.5234 2.5 12.0004C2.5 6.47737 6.977 2.00037 12.5 2.00037ZM4.705 13.8104C5.05496 15.3127 5.83129 16.6821 6.94071 17.7539C8.05013 18.8257 9.44545 19.5544 10.959 19.8524C10.766 17.2274 9.903 15.6524 8.813 14.7814C7.769 13.9464 6.353 13.6234 4.705 13.8094V13.8104ZM16.187 14.7804C15.097 15.6534 14.234 17.2274 14.041 19.8524C15.5547 19.5543 16.9501 18.8255 18.0595 17.7535C19.169 16.6815 19.9452 15.3119 20.295 13.8094C18.647 13.6234 17.231 13.9464 16.187 14.7814V14.7804ZM12.5 4.00037C10.636 4.00004 8.83043 4.6506 7.39502 5.83972C5.9596 7.02884 4.98447 8.68187 4.638 10.5134L4.595 10.7614L6.805 10.3194C7.387 10.2034 7.94 9.89637 8.558 9.47937L9.035 9.14737C9.832 8.58137 11.013 8.00037 12.5 8.00037C13.888 8.00037 15.009 8.50637 15.8 9.03437L16.442 9.47937C16.982 9.84437 17.474 10.1244 17.978 10.2674L18.195 10.3194L20.405 10.7614C20.1096 8.87712 19.1508 7.1604 17.7013 5.92072C16.2519 4.68105 14.4073 4 12.5 4.00037Z" fill="#6E6D74"/>
</svg>
