<svg width="7" height="10" viewBox="0 0 7 10" fill="none" xmlns="http://www.w3.org/2000/svg">
<path d="M4.60526 4.48312H4.05263V2.06933H4.23684C4.57883 2.06933 4.90681 2.19649 5.14864 2.42282C5.39046 2.64916 5.52632 2.95614 5.52632 3.27623C5.52632 3.41341 5.58454 3.54497 5.68818 3.64197C5.79182 3.73897 5.93238 3.79347 6.07895 3.79347C6.22551 3.79347 6.36608 3.73897 6.46972 3.64197C6.57336 3.54497 6.63158 3.41341 6.63158 3.27623C6.63085 2.68199 6.37831 2.11228 5.92937 1.69209C5.48043 1.2719 4.87174 1.03553 4.23684 1.03485H4.05263V0.517608C4.05263 0.380427 3.99441 0.248864 3.89077 0.151863C3.78713 0.0548611 3.64657 0.000366211 3.5 0.000366211C3.35343 0.000366211 3.21287 0.0548611 3.10923 0.151863C3.00559 0.248864 2.94737 0.380427 2.94737 0.517608V1.03485H2.76316C2.12803 1.03485 1.51892 1.27099 1.06982 1.69133C0.620723 2.11167 0.368421 2.68178 0.368421 3.27623C0.368421 3.87068 0.620723 4.44078 1.06982 4.86112C1.51892 5.28146 2.12803 5.51761 2.76316 5.51761H2.94737V7.9314H2.39474C2.05275 7.9314 1.72476 7.80425 1.48294 7.57791C1.24112 7.35157 1.10526 7.04459 1.10526 6.7245C1.10526 6.58732 1.04704 6.45576 0.943401 6.35876C0.839763 6.26176 0.699199 6.20726 0.552632 6.20726C0.406065 6.20726 0.2655 6.26176 0.161862 6.35876C0.0582234 6.45576 0 6.58732 0 6.7245C0.000731311 7.31874 0.253268 7.88845 0.70221 8.30864C1.15115 8.72883 1.75984 8.9652 2.39474 8.96588H2.94737V9.48313C2.94737 9.62031 3.00559 9.75187 3.10923 9.84887C3.21287 9.94587 3.35343 10.0004 3.5 10.0004C3.64657 10.0004 3.78713 9.94587 3.89077 9.84887C3.99441 9.75187 4.05263 9.62031 4.05263 9.48313V8.96588H4.60526C5.24039 8.96588 5.8495 8.72974 6.2986 8.3094C6.7477 7.88906 7 7.31896 7 6.7245C7 6.13005 6.7477 5.55995 6.2986 5.13961C5.8495 4.71927 5.24039 4.48312 4.60526 4.48312ZM2.76316 4.48312C2.42117 4.48312 2.09319 4.35597 1.85136 4.12963C1.60954 3.9033 1.47368 3.59632 1.47368 3.27623C1.47368 2.95614 1.60954 2.64916 1.85136 2.42282C2.09319 2.19649 2.42117 2.06933 2.76316 2.06933H2.94737V4.48312H2.76316ZM4.60526 7.9314H4.05263V5.51761H4.60526C4.94725 5.51761 5.27524 5.64476 5.51706 5.8711C5.75888 6.09744 5.89474 6.40442 5.89474 6.7245C5.89474 7.04459 5.75888 7.35157 5.51706 7.57791C5.27524 7.80425 4.94725 7.9314 4.60526 7.9314Z" fill="#0C0C0C"/>
</svg>
