<svg width="25" height="24" viewBox="0 0 25 24" fill="none" xmlns="http://www.w3.org/2000/svg">
<path d="M18.5 10.0004C18.2348 10.0004 17.9804 9.89501 17.7929 9.70747C17.6054 9.51994 17.5 9.26558 17.5 9.00037C17.5 8.73515 17.6054 8.4808 17.7929 8.29326C17.9804 8.10572 18.2348 8.00037 18.5 8.00037C18.7652 8.00037 19.0196 8.10572 19.2071 8.29326C19.3946 8.4808 19.5 8.73515 19.5 9.00037C19.5 9.26558 19.3946 9.51994 19.2071 9.70747C19.0196 9.89501 18.7652 10.0004 18.5 10.0004ZM12.5 10.0004H6.5V5.00037H12.5M20.27 7.23037L20.28 7.22037L16.56 3.50037L15.5 4.56037L17.61 6.67037C16.67 7.00037 16 7.93037 16 9.00037C16 9.32867 16.0647 9.65376 16.1903 9.95708C16.3159 10.2604 16.5001 10.536 16.7322 10.7681C17.2011 11.237 17.837 11.5004 18.5 11.5004C18.86 11.5004 19.19 11.4204 19.5 11.2904V18.5004C19.5 18.7656 19.3946 19.0199 19.2071 19.2075C19.0196 19.395 18.7652 19.5004 18.5 19.5004C18.2348 19.5004 17.9804 19.395 17.7929 19.2075C17.6054 19.0199 17.5 18.7656 17.5 18.5004V14.0004C17.5 13.4699 17.2893 12.9612 16.9142 12.5862C16.5391 12.2111 16.0304 12.0004 15.5 12.0004H14.5V5.00037C14.5 4.46993 14.2893 3.96123 13.9142 3.58615C13.5391 3.21108 13.0304 3.00037 12.5 3.00037H6.5C5.39 3.00037 4.5 3.89037 4.5 5.00037V21.0004H14.5V13.5004H16V18.5004C16 19.1634 16.2634 19.7993 16.7322 20.2681C17.2011 20.737 17.837 21.0004 18.5 21.0004C18.8283 21.0004 19.1534 20.9357 19.4567 20.8101C19.76 20.6844 20.0356 20.5003 20.2678 20.2681C20.4999 20.036 20.6841 19.7604 20.8097 19.4571C20.9353 19.1538 21 18.8287 21 18.5004V9.00037C21 8.31037 20.72 7.68037 20.27 7.23037Z" fill="#6E6D74"/>
</svg>
