<svg width="25" height="24" viewBox="0 0 25 24" fill="none" xmlns="http://www.w3.org/2000/svg">
<path d="M10.6148 21.8112C11.2208 22.3112 11.8528 22.7682 12.4998 23.2142C13.1482 22.7741 13.7771 22.306 14.3848 21.8112C15.3978 20.9794 16.3512 20.0775 17.2378 19.1122C19.2818 16.8772 21.4998 13.6372 21.4998 10.0002C21.4998 8.81829 21.267 7.64796 20.8147 6.55603C20.3624 5.4641 19.6995 4.47195 18.8638 3.63622C18.028 2.80049 17.0359 2.13756 15.944 1.68527C14.852 1.23297 13.6817 1.00018 12.4998 1.00018C11.3179 1.00018 10.1476 1.23297 9.05567 1.68527C7.96374 2.13756 6.97158 2.80049 6.13586 3.63622C5.30013 4.47195 4.63719 5.4641 4.1849 6.55603C3.73261 7.64796 3.49982 8.81829 3.49982 10.0002C3.49982 13.6372 5.71782 16.8762 7.76182 19.1122C8.64844 20.0779 9.60178 20.9791 10.6148 21.8112ZM12.4998 13.2502C11.6379 13.2502 10.8112 12.9078 10.2017 12.2983C9.59223 11.6888 9.24982 10.8621 9.24982 10.0002C9.24982 9.13823 9.59223 8.31158 10.2017 7.70209C10.8112 7.09259 11.6379 6.75018 12.4998 6.75018C13.3618 6.75018 14.1884 7.09259 14.7979 7.70209C15.4074 8.31158 15.7498 9.13823 15.7498 10.0002C15.7498 10.8621 15.4074 11.6888 14.7979 12.2983C14.1884 12.9078 13.3618 13.2502 12.4998 13.2502Z" fill="#B6B4BF"/>
</svg>
